<?xml version="1.0" encoding="UTF-8"?>
<svg xmlns="http://www.w3.org/2000/svg" viewBox="0 0 380 120" width="380" height="120" role="img" aria-label="Noumensia">
  <g>
    <g transform="translate(15,0)">
    <path d="M 18.700,26.000 L 18.700,85.500 L 15.700,85.500 L 20.000,93.000 L 24.300,85.500 L 21.300,85.500 L 21.300,26.000 Z" fill="#6B2737"/>
    <path d="M 22.560,25.580 L 70.260,89.180 L 67.860,90.980 L 75.800,94.400 L 74.740,85.820 L 72.340,87.620 L 24.640,24.020 Z" fill="#6B2737"/>
    <path d="M 78.700,26.000 L 78.700,85.500 L 75.700,85.500 L 80.000,93.000 L 84.300,85.500 L 81.300,85.500 L 81.300,26.000 Z" fill="#3D4A52"/>
    <circle cx="20.0" cy="20.0" r="4.5" fill="#6B2737"/>
    <circle cx="80.0" cy="20.0" r="4.5" fill="#3D4A52"/>
    <circle cx="20.0" cy="100.0" r="4.5" fill="#3D4A52"/>
    <circle cx="80.0" cy="100.0" r="4.5" fill="#3D4A52"/>
  </g>
  <text x="130" y="73" font-family="'Newsreader', 'Liberation Serif', serif" font-weight="500" font-size="36" letter-spacing="1.5" fill="#3D4A52" text-anchor="start">Noumensia</text>
  </g>
</svg>
